<?xml version="1.0" standalone="no"?>
<!DOCTYPE svg PUBLIC "-//W3C//DTD SVG 20010904//EN"
 "http://www.w3.org/TR/2001/REC-SVG-20010904/DTD/svg10.dtd">
<svg version="1.0" xmlns="http://www.w3.org/2000/svg"
 width="576.000000pt" height="576.000000pt" viewBox="0 0 576.000000 576.000000"
 preserveAspectRatio="xMidYMid meet">
<metadata>
Created by potrace 1.11, written by Peter Selinger 2001-2013
</metadata>
<g transform="translate(0.000000,576.000000) scale(0.100000,-0.100000)"
fill="#000000" stroke="none">
<path d="M1440 3240 l0 -1080 -120 0 -120 0 0 -30 0 -30 -60 0 -60 0 0 -30 c0
-27 -3 -30 -30 -30 -27 0 -30 -3 -30 -30 0 -27 -3 -30 -30 -30 l-30 0 0 -60 0
-60 30 0 30 0 0 -60 0 -60 30 0 30 0 0 -60 0 -60 -30 0 c-27 0 -30 -3 -30 -30
0 -27 -3 -30 -30 -30 l-30 0 0 -60 0 -60 -30 0 -30 0 0 -120 0 -120 30 0 30 0
0 -90 0 -90 30 0 c27 0 30 -3 30 -30 0 -27 3 -30 30 -30 27 0 30 -3 30 -30 l0
-30 60 0 60 0 0 -30 0 -30 210 0 210 0 0 30 0 30 60 0 60 0 0 30 0 30 60 0 60
0 0 -30 c0 -27 3 -30 30 -30 27 0 30 -3 30 -30 l0 -30 60 0 60 0 0 -30 c0 -27
3 -30 30 -30 27 0 30 -3 30 -30 0 -27 3 -30 30 -30 27 0 30 -3 30 -30 0 -27 3
-30 30 -30 27 0 30 -3 30 -30 l0 -30 90 0 90 0 0 30 c0 27 3 30 30 30 27 0 30
3 30 30 0 27 3 30 30 30 27 0 30 3 30 30 0 27 3 30 30 30 l30 0 0 210 0 210
-30 0 -30 0 0 60 0 60 -30 0 c-27 0 -30 3 -30 30 0 27 -3 30 -30 30 -27 0 -30
3 -30 30 l0 30 840 0 840 0 0 -60 0 -60 -30 0 c-27 0 -30 -3 -30 -30 0 -27 3
-30 30 -30 l30 0 0 -60 0 -60 30 0 c27 0 30 -3 30 -30 0 -27 3 -30 30 -30 27
0 30 -3 30 -30 l0 -30 90 0 90 0 0 -30 c0 -27 3 -30 30 -30 l30 0 0 -60 0 -60
30 0 c27 0 30 -3 30 -30 0 -27 3 -30 30 -30 27 0 30 -3 30 -30 l0 -30 120 0
120 0 0 30 c0 27 3 30 30 30 27 0 30 3 30 30 0 27 3 30 30 30 l30 0 0 60 0 60
30 0 c27 0 30 3 30 30 l0 30 90 0 90 0 0 30 c0 27 3 30 30 30 27 0 30 3 30 30
0 27 3 30 30 30 l30 0 0 60 0 60 30 0 c27 0 30 3 30 30 0 27 -3 30 -30 30
l-30 0 0 60 0 60 -30 0 c-27 0 -30 3 -30 30 0 27 -3 30 -30 30 -27 0 -30 3
-30 30 0 27 -3 30 -30 30 -27 0 -30 3 -30 30 0 27 3 30 30 30 27 0 30 3 30 30
0 27 -3 30 -30 30 -27 0 -30 3 -30 30 0 27 -3 30 -30 30 l-30 0 0 60 0 60 -30
0 c-27 0 -30 3 -30 30 0 27 -3 30 -30 30 l-30 0 0 60 0 60 30 0 30 0 0 60 0
60 30 0 c27 0 30 3 30 30 l0 30 90 0 90 0 0 30 c0 27 3 30 30 30 27 0 30 3 30
30 0 27 3 30 30 30 l30 0 0 60 0 60 30 0 c27 0 30 3 30 30 0 27 -3 30 -30 30
l-30 0 0 60 0 60 -30 0 c-27 0 -30 3 -30 30 0 27 -3 30 -30 30 -27 0 -30 3
-30 30 0 27 -3 30 -30 30 -27 0 -30 3 -30 30 0 27 3 30 30 30 27 0 30 3 30 30
0 27 -3 30 -30 30 -27 0 -30 3 -30 30 0 27 -3 30 -30 30 l-30 0 0 60 0 60 -30
0 c-27 0 -30 3 -30 30 l0 30 60 0 60 0 0 30 c0 27 3 30 30 30 27 0 30 3 30 30
0 27 3 30 30 30 l30 0 0 60 0 60 30 0 c27 0 30 3 30 30 0 27 -3 30 -30 30
l-30 0 0 60 0 60 -30 0 c-27 0 -30 3 -30 30 0 27 -3 30 -30 30 -27 0 -30 3
-30 30 0 27 -3 30 -30 30 -27 0 -30 3 -30 30 0 27 3 30 30 30 27 0 30 3 30 30
0 27 -3 30 -30 30 -27 0 -30 3 -30 30 0 27 -3 30 -30 30 l-30 0 0 60 0 60 -30
0 c-27 0 -30 3 -30 30 0 27 -3 30 -30 30 -27 0 -30 3 -30 30 0 27 -3 30 -30
30 -27 0 -30 3 -30 30 0 27 -3 30 -30 30 -27 0 -30 3 -30 30 0 27 -3 30 -30
30 -27 0 -30 3 -30 30 l0 30 -60 0 -60 0 0 -30 c0 -27 -3 -30 -30 -30 -27 0
-30 -3 -30 -30 0 -27 -3 -30 -30 -30 -27 0 -30 -3 -30 -30 0 -27 -3 -30 -30
-30 -27 0 -30 -3 -30 -30 0 -27 -3 -30 -30 -30 l-30 0 0 -60 0 -60 -30 0 -30
0 0 210 0 210 -1440 0 -1440 0 0 -1080z m2940 -150 c0 -27 3 -30 30 -30 27 0
30 -3 30 -30 0 -27 -3 -30 -30 -30 -27 0 -30 -3 -30 -30 0 -27 -3 -30 -30 -30
l-30 0 0 90 0 90 30 0 c27 0 30 -3 30 -30z m60 -900 c0 -27 3 -30 30 -30 l30
0 0 -90 0 -90 -30 0 c-27 0 -30 -3 -30 -30 0 -27 -3 -30 -30 -30 l-30 0 0 -60
0 -60 -30 0 -30 0 0 210 0 210 60 0 60 0 0 -30z m-2460 -780 c0 -27 -3 -30
-30 -30 -27 0 -30 3 -30 30 0 27 3 30 30 30 27 0 30 -3 30 -30z"/>
<path d="M2700 1350 c0 -27 -3 -30 -30 -30 l-30 0 0 -210 0 -210 30 0 c27 0
30 -3 30 -30 0 -27 3 -30 30 -30 27 0 30 -3 30 -30 0 -27 3 -30 30 -30 27 0
30 -3 30 -30 l0 -30 120 0 120 0 0 30 c0 27 3 30 30 30 27 0 30 3 30 30 0 27
3 30 30 30 l30 0 0 120 0 120 30 0 30 0 0 60 0 60 -30 0 c-27 0 -30 3 -30 30
l0 30 -60 0 -60 0 0 30 0 30 -60 0 -60 0 0 30 0 30 -120 0 -120 0 0 -30z"/>
<path d="M2700 630 c0 -27 -3 -30 -30 -30 -27 0 -30 -3 -30 -30 0 -27 -3 -30
-30 -30 l-30 0 0 -90 0 -90 -30 0 -30 0 0 -90 0 -90 30 0 c27 0 30 -3 30 -30
0 -27 3 -30 30 -30 27 0 30 -3 30 -30 0 -27 3 -30 30 -30 27 0 30 -3 30 -30
l0 -30 150 0 150 0 0 30 c0 27 3 30 30 30 27 0 30 3 30 30 0 27 3 30 30 30 27
0 30 3 30 30 0 27 3 30 30 30 l30 0 0 60 0 60 -30 0 c-27 0 -30 3 -30 30 0 27
3 30 30 30 l30 0 0 90 0 90 -30 0 c-27 0 -30 3 -30 30 l0 30 -60 0 -60 0 0 30
0 30 -150 0 -150 0 0 -30z"/>
<path d="M1860 510 c0 -27 -3 -30 -30 -30 l-30 0 0 -90 0 -90 30 0 30 0 0 -90
0 -90 30 0 c27 0 30 -3 30 -30 l0 -30 90 0 90 0 0 30 c0 27 3 30 30 30 27 0
30 3 30 30 0 27 3 30 30 30 27 0 30 3 30 30 0 27 3 30 30 30 l30 0 0 60 0 60
-30 0 c-27 0 -30 3 -30 30 l0 30 -60 0 -60 0 0 30 c0 27 -3 30 -30 30 -27 0
-30 3 -30 30 l0 30 -90 0 -90 0 0 -30z"/>
</g>
</svg>
